<?xml version="1.0" encoding="iso-8859-1"?>
<!-- Generator: Adobe Illustrator 19.0.0, SVG Export Plug-In . SVG Version: 6.00 Build 0)  -->
<svg version="1.1" id="Layer_1" xmlns="http://www.w3.org/2000/svg" xmlns:xlink="http://www.w3.org/1999/xlink" x="0px" y="0px"
	 viewBox="0 0 512 512" style="enable-background:new 0 0 512 512;" xml:space="preserve">
<polygon style="fill:#FF9900;" points="283,91.2 283,312.9 301,312.9 301,82.2 "/>
<path style="fill:#CC9966;" d="M256,17.2l-43.3,57.7L232,86.5L254.6,73l0.2-0.1c0.4-0.2,0.8-0.4,1.2-0.4s0.9,0.1,1.2,0.4l0.1,0.1
	L280,86.5l19.3-11.6L256,17.2z"/>
<polygon style="fill:#FF9900;" points="211,312.9 229,312.9 229,91.2 211,82.2 "/>
<polygon style="fill:#EE5656;" points="256,79.8 235,91.3 235,312.9 277,312.9 277,91.3 "/>
<g>
	<path style="fill:#FFF8EF;" d="M210.5,374.9l0.5,5.5c1.1,11.7,10.8,20.5,22.6,20.5h45.6c11.2,0,20.7-9,21.8-20.5l0.5-5.5H210.5z"/>
	<path style="fill:#FFF8EF;" d="M390.5,479.4c-4-8.1-13.1-13.5-22.5-13.5c-5.2,0-10.3,1.6-14.6,4.7c-2.7-11.8-13.3-20.7-25.4-20.7
		c-23.5,0-39.5-26.5-47-42.3l-2.7-5.7h-45l-2.6,6.2c-6.4,15.5-23.4,41.8-46.8,41.8c-12,0-22.1,8.3-25.2,19.9
		c-4.1-3-9.5-4.7-14.8-4.7c-9.4,0-18.5,5.4-22.5,13.5l-1.1,2.1v2.4c0,1.4,0.3,2.8,0.8,4.1v1.6l6.1,6.1c1,1,2.7,2.7,5.8,4.3l0.6,0.3
		l0.7,0.2c0.4,0.1,0.8,0.3,1.2,0.4c2.1,0.8,4.7,1.7,8.4,1.7h224c2.2,0,3.9-0.3,5.2-0.6c0.5-0.1,1-0.2,1.2-0.2l4.1,0.1l2.7-2.7
		c0.1-0.1,0.3-0.2,0.4-0.3c0.9-0.6,2-1.3,3.1-2.4l6.1-6.1V488c0.5-1.3,0.8-2.7,0.8-4.1v-2.4L390.5,479.4z"/>
</g>
<g>
	<rect x="419" y="350.9" style="fill:#1D9AAE;" width="34" height="18"/>
	<rect x="379" y="350.9" style="fill:#1D9AAE;" width="34" height="18"/>
	<rect x="339" y="350.9" style="fill:#1D9AAE;" width="34" height="18"/>
	<rect x="299" y="350.9" style="fill:#1D9AAE;" width="34" height="18"/>
	<rect x="259" y="350.9" style="fill:#1D9AAE;" width="34" height="18"/>
	<rect x="219" y="350.9" style="fill:#1D9AAE;" width="34" height="18"/>
	<rect x="179" y="350.9" style="fill:#1D9AAE;" width="34" height="18"/>
	<rect x="139" y="350.9" style="fill:#1D9AAE;" width="34" height="18"/>
	<rect x="99" y="350.9" style="fill:#1D9AAE;" width="34" height="18"/>
	<rect x="59" y="350.9" style="fill:#1D9AAE;" width="34" height="18"/>
	<path style="fill:#1D9AAE;" d="M488,318.9c-1.5,0-3-1.3-3-2.2v-0.2v-0.2c-3.6-44.3-23-86.1-54.8-117.7c-31.5-31.4-73-50.8-117-54.8
		l-5.5-0.5v49.9l4.4,0.5c64.6,7.9,115,57.9,122.8,121.7c0,1.1-0.4,2.1-0.9,2.6c-0.6,0.6-1.7,0.9-2.9,0.9H81.6
		c-1.2,0-2.3-0.4-2.9-0.9c-0.5-0.5-0.9-1.5-0.9-2.6c7.7-63.6,59.3-114.7,122.7-121.7l4.5-0.5v-50l-5.5,0.5c-44,4-85.5,23.5-117,54.8
		C50.7,230.1,31.3,272,27.7,316.2v0.2v0.2c0,0.9-1.5,2.2-3,2.2H11v50h42v-18H29v-14.4c8.8-1.8,15.9-9.3,16.8-18.5v-0.1
		c6-77.1,65-141.2,141.2-154.5v13.9c-32.4,5.9-61.5,21.5-84.4,45.2c-23.9,24.8-38.7,56-42.8,90.4c-1,6.3,1,12.6,5.4,17
		c4.7,4.7,9.9,7.1,15.5,7.1h350.4c6.8,0,12-2.7,15.9-8.2c4.3-4.5,6-9.9,5.1-15.9c-4.1-34.4-18.9-65.6-42.8-90.4
		c-22.9-23.7-52-39.3-84.4-45.2v-13.9c76.2,13.3,135.2,77.4,141.2,154.5v0.1c0.9,9.2,8,16.6,16.8,18.5v14.5h-24v18h42v-50H488z"/>
	<rect x="424" y="355.9" style="fill:#1D9AAE;" width="24" height="8"/>
	<rect x="384" y="355.9" style="fill:#1D9AAE;" width="24" height="8"/>
	<rect x="344" y="355.9" style="fill:#1D9AAE;" width="24" height="8"/>
	<rect x="304" y="355.9" style="fill:#1D9AAE;" width="24" height="8"/>
	<rect x="264" y="355.9" style="fill:#1D9AAE;" width="24" height="8"/>
	<rect x="224" y="355.9" style="fill:#1D9AAE;" width="24" height="8"/>
	<rect x="184" y="355.9" style="fill:#1D9AAE;" width="24" height="8"/>
	<rect x="144" y="355.9" style="fill:#1D9AAE;" width="24" height="8"/>
	<rect x="104" y="355.9" style="fill:#1D9AAE;" width="24" height="8"/>
	<rect x="64" y="355.9" style="fill:#1D9AAE;" width="24" height="8"/>
	<path style="fill:#1D9AAE;" d="M192,157.5c-80,11.2-144.8,78.4-151.2,160c-0.8,8-8,14.4-16,14.4H24v24h24v8H16v-40h8.8
		c4,0,8-3.2,8-7.2c7.2-89.6,79.2-160,167.2-168v40c-65.6,7.2-119.2,59.2-127.2,126.4c0,2.4,0.8,4.8,2.4,6.4s4,2.4,6.4,2.4H208h96
		h120h7.2c2.4,0,4.8-0.8,6.4-2.4s2.4-4,2.4-6.4c-8-67.2-61.6-118.4-127.2-126.4v-40c88,8,160,78.4,167.2,168c0,4,4,7.2,8,7.2h8v40
		h-32v-8h24v-24h-0.8c-8,0-15.2-6.4-16-14.4c-6.4-81.6-71.2-148.8-151.2-160v24c67.2,10.4,119.2,64,127.2,132c0.8,4.8-0.8,8.8-4,12
		c-3.2,4.8-7.2,6.4-12,6.4H424H80.8c-4.8,0-8.8-2.4-12-5.6s-4.8-8-4-12.8c8-68,60-121.6,127.2-132V157.5z"/>
</g>
<g>
	<circle style="fill:#42210B;" cx="456" cy="75.9" r="16"/>
	<rect x="448" y="99.9" style="fill:#42210B;" width="16" height="72"/>
</g>
<g>
	<path style="fill:#D9CDC1;" d="M379.2,487.1c0.8-0.8,0.8-0.8,1.6-1.6C380,486.3,380,486.3,379.2,487.1z"/>
	<path style="fill:#D9CDC1;" d="M379.2,487.1c-0.8,0.8-0.8,0.8-1.6,1.6C378.4,487.9,378.4,487.9,379.2,487.1z"/>
	<path style="fill:#D9CDC1;" d="M374.4,490.3c1.6-0.8,2.4-1.6,3.2-2.4C376.8,489.5,375.2,490.3,374.4,490.3z"/>
	<path style="fill:#D9CDC1;" d="M368,459.9c8.8,0,16,7.2,16,16c0,4-1.6,7.2-3.2,9.6c0-0.8,0.8-0.8,0.8-1.6c-3.2-4.8-8-8-13.6-8
		c-4,0-8,1.6-10.4,4s-5.6,2.4-8,1.6c-3.2-0.8-4.8-4-4.8-7.2c-0.8-8-7.2-15.2-16-15.2c-31.2,0-50.4-34.4-56-48h2.4
		c6.4,13.6,22.4,32,53.6,32c8,0,15.2,6.4,16,15.2c0,3.2,2.4,5.6,4.8,7.2c2.4,0.8,6.4,0.8,8-1.6C360,461.5,364,459.9,368,459.9z"/>
	<path style="fill:#D9CDC1;" d="M137.6,490.3c-0.8-0.8-2.4-1.6-3.2-2.4C135.2,489.5,136.8,490.3,137.6,490.3z"/>
	<path style="fill:#D9CDC1;" d="M134.4,488.7c-0.8,0-0.8-0.8-1.6-1.6C132.8,487.9,133.6,487.9,134.4,488.7z"/>
	<path style="fill:#D9CDC1;" d="M131.2,485.5c0.8,0.8,0.8,0.8,1.6,1.6C132,486.3,132,486.3,131.2,485.5z"/>
	<path style="fill:#D9CDC1;" d="M240,411.9c-6.4,13.6-24.8,48-56,48c-8,0-15.2,6.4-16,15.2c0,3.2-2.4,5.6-4.8,7.2
		c-2.4,0.8-6.4,0.8-8-1.6c-3.2-3.2-7.2-4.8-11.2-4.8c-5.6,0-11.2,3.2-13.6,8c0,0.8,0.8,0.8,0.8,1.6c-2.4-2.4-3.2-5.6-3.2-9.6
		c0-8.8,7.2-16,16-16c4,0,8,1.6,10.4,4s5.6,2.4,8,1.6c3.2-0.8,4.8-4,4.8-7.2c0.8-8,7.2-15.2,16-15.2c31.2,0,48-18.4,53.6-32h3.2
		L240,411.9L240,411.9z"/>
</g>
<path style="fill:#2FB4C2;" d="M487.2,331.9c-8,0-15.2-6.4-16-14.4c-6.4-81.6-71.2-148.8-151.2-160v24c67.2,10.4,119.2,64,127.2,132
	c0.8,4.8-0.8,8.8-4,12c-3.2,4.8-7.2,6.4-12,6.4H424H80.8c-4.8,0-8.8-2.4-12-5.6s-4.8-8-4-12.8c8-68,60-121.6,127.2-132v-24
	c-80,11.2-144.8,78.4-151.2,160c-0.8,8-8,14.4-16,14.4H24v24h24v-16h16v16h24v-16h16v16h24v-16h16v16h24v-16h16v16h24v-16h16v16h24
	v-16h16v16h24v-16h16v16h24v-16h16v16h24v-16h16v16h24v-16h16v16h24v-16h16v16h24L487.2,331.9L487.2,331.9z"/>
<g>
	<circle style="fill:#42210B;" cx="40" cy="67.9" r="16"/>
	<rect x="32" y="147.9" style="fill:#42210B;" width="16" height="32"/>
	<rect x="32" y="91.9" style="fill:#42210B;" width="16" height="40"/>
	<path style="fill:#42210B;" d="M296,307.9v-104v-16v-40v-16V89.5l-8,4.8v213.6H296z M421.6,307.9c-10.4-54.4-55.2-96-109.6-103.2
		v103.2H421.6z M224,307.9V94.3l-8-4.8v42.4v16v40v16v104H224z M232.8,395.9h45.6c8.8,0,16.8-7.2,16.8-16H216
		C216.8,388.7,224,395.9,232.8,395.9z M240,307.9h32V94.3l-16-9.6l-16,9.6V307.9z M252,68.7c2.4-1.6,5.6-1.6,8,0l20,12l12-7.2
		l-36-48l-36,48l12,7.2L252,68.7z M237.6,411.9c-6.4,13.6-22.4,32-53.6,32c-8,0-15.2,6.4-16,15.2c0,3.2-2.4,5.6-4.8,7.2
		c-2.4,0.8-6.4,0.8-8-1.6c-3.2-3.2-7.2-4.8-11.2-4.8c-8.8,0-16,7.2-16,16c0,4,0.8,7.2,3.2,9.6c0,0.8,0.8,0.8,1.6,1.6
		c0.8,0.8,0.8,0.8,1.6,1.6c0.8,0.8,2.4,1.6,3.2,2.4c1.6,0.8,4,1.6,6.4,1.6h224c2.4,0,4-0.8,6.4-1.6c1.6-0.8,2.4-1.6,3.2-2.4
		c0.8,0,0.8-0.8,1.6-1.6c0.8-0.8,0.8-0.8,1.6-1.6c2.4-2.4,3.2-6.4,3.2-9.6c0-8.8-7.2-16-16-16c-4,0-8,1.6-10.4,4s-5.6,2.4-8,1.6
		c-3.2-0.8-4.8-4-4.8-7.2c-0.8-8-7.2-15.2-16-15.2c-31.2,0-48-18.4-53.6-32H272h-32h-2.4V411.9z M200,307.9V204.7
		c-54.4,7.2-99.2,48-109.6,103.2H200z M208,323.9H80.8c-2.4,0-4.8-0.8-6.4-2.4s-2.4-4-2.4-6.4c8-67.2,61.6-118.4,127.2-126.4v-40
		c-88,8-160,78.4-167.2,168c0,4-3.2,7.2-7.2,7.2H16v40h32v-8v-16h16v16v8h24v-8v-16h16v16v8h24v-8v-16h16v16v8h24v-8v-16h16v16v8h24
		v-8v-16h16v16v8h24v-8v-16h16v16v8h24v-8v-16h16v16v8h24v-8v-16h16v16v8h24v-8v-16h16v16v8h24v-8v-16h16v16v8h24v-8v-16h16v16v8h32
		v-40h-8.8c-4,0-8-3.2-8-7.2c-7.2-89.6-79.2-160-167.2-168v40c65.6,7.2,119.2,59.2,127.2,126.4c0,2.4-0.8,4.8-2.4,6.4
		s-4,2.4-6.4,2.4H424H304H208z M17.6,307.9c11.2-93.6,88.8-168,182.4-175.2V75.9c0-1.6,0.8-3.2,1.6-4.8l0,0l48-64
		c3.2-4,9.6-4,12.8,0l48,64l0,0c0.8,1.6,1.6,3.2,1.6,4.8v56.8c93.6,7.2,171.2,81.6,182.4,175.2h9.6c4,0,8,4,8,8v56c0,4-4,8-8,8H312
		c-0.8,13.6-8.8,24.8-20.8,29.6c4.8,8,15.2,18.4,36.8,18.4c12.8,0,23.2,7.2,28.8,18.4c3.2-1.6,7.2-2.4,11.2-2.4
		c17.6,0,32,14.4,32,32s-14.4,32-32,32H144c-17.6,0-32-14.4-32-32s14.4-32,32-32c4,0,8,0.8,11.2,2.4c4.8-10.4,16-18.4,28.8-18.4
		c21.6,0,32-10.4,36.8-18.4c-12-4.8-20-16-20.8-29.6H8c-4.8,0-8-4-8-8v-56c0-4,3.2-8,8-8H17.6z"/>
</g>
<g>
</g>
<g>
</g>
<g>
</g>
<g>
</g>
<g>
</g>
<g>
</g>
<g>
</g>
<g>
</g>
<g>
</g>
<g>
</g>
<g>
</g>
<g>
</g>
<g>
</g>
<g>
</g>
<g>
</g>
</svg>
