<?xml version="1.0" encoding="iso-8859-1"?>
<!-- Generator: Adobe Illustrator 18.0.0, SVG Export Plug-In . SVG Version: 6.00 Build 0)  -->
<!DOCTYPE svg PUBLIC "-//W3C//DTD SVG 1.1//EN" "http://www.w3.org/Graphics/SVG/1.1/DTD/svg11.dtd">
<svg version="1.1" id="Capa_1" xmlns="http://www.w3.org/2000/svg" xmlns:xlink="http://www.w3.org/1999/xlink" x="0px" y="0px"
	 viewBox="0 0 434.86 434.86" style="enable-background:new 0 0 434.86 434.86;" xml:space="preserve">
<g>
	<path style="fill:#EDC148;" d="M368.9,106.99c0,0,0,0-0.01,0c-0.31,0-11.21-0.37-11.21-0.37l-2.16,6.94
		c-0.26,0.85-0.56,1.68-0.88,2.5c-3.58,9.21-10.68,16.74-19.9,20.46c-3.25,1.31-6.66,2.27-10.16,2.86
		c-38.5,6.47-58.12,22.7-58.12,22.7c1.33,6.89,2.32,14.21,3.03,21.82c0.35,3.68,0.62,7.44,0.84,11.25l-24.85,22.35l-35.78-32.18
		l-35.77,32.18l-33.65-30.26c-0.41-4.39-0.73-8.68-0.97-12.87c-0.82-14.37-0.69-27.55,0.08-39.49c0.33-5.09,0.77-9.96,1.3-14.59
		l13.34,2.21l12.85-46.38L214.36,84l12.84-46.37l47.48,7.88l4.17-15.05l0.37-1.35h0.01c0.05,0,0.11,0,0.16,0.01
		c1.67,0.05,3.3,0.11,4.91,0.2c11.7,0.59,21.83,1.9,30.02,3.33c15.61,2.74,28.95,12.7,36.08,26.84
		C361.7,81.92,368.9,106.99,368.9,106.99z"/>
	<path style="fill:#F2F2F2;" d="M276.15,295.93c20.04,0,36.29,16.25,36.29,36.29c0,20.05-16.25,36.3-36.29,36.3
		c-20.05,0-36.3-16.25-36.3-36.3C239.85,312.18,256.1,295.93,276.15,295.93z"/>
	<path style="fill:#F2F2F2;" d="M216.36,242.72c8.39,0,15.19,6.8,15.19,15.2c0,8.39-6.8,15.19-15.19,15.19s-15.2-6.8-15.2-15.19
		C201.16,249.52,207.97,242.72,216.36,242.72z"/>
	<path style="fill:#F2F2F2;" d="M142.25,319.82c13.52,0,24.48,10.96,24.48,24.48c0,13.52-10.96,24.48-24.48,24.48
		s-24.47-10.96-24.47-24.48C117.78,330.78,128.73,319.82,142.25,319.82z"/>
	<path style="fill:#F2F2F2;" d="M109.78,261.95c10.48,0,18.98,8.5,18.98,18.98c0,10.48-8.5,18.98-18.98,18.98
		c-10.49,0-18.98-8.5-18.98-18.98C90.8,270.45,99.29,261.95,109.78,261.95z"/>
	<path style="fill:#CCCCCC;" d="M334.54,201.76c11.82,31.71,18.56,63.85,18.56,89.53c0,79.29-64.28,143.57-143.57,143.57
		c-79.3,0-143.57-64.28-143.57-143.57c0-25.75,6.78-57.99,18.65-89.78l17.76,15.99l35.78-32.18l2.13,1.92l33.65,30.26l35.77-32.18
		l35.78,32.18l24.85-22.35l10.93-9.83l35.78,32.18L334.54,201.76z M312.44,332.22c0-20.04-16.25-36.29-36.29-36.29
		c-20.05,0-36.3,16.25-36.3,36.29c0,20.05,16.25,36.3,36.3,36.3C296.19,368.52,312.44,352.27,312.44,332.22z M231.55,257.92
		c0-8.4-6.8-15.2-15.19-15.2s-15.2,6.8-15.2,15.2c0,8.39,6.81,15.19,15.2,15.19S231.55,266.31,231.55,257.92z M166.73,344.3
		c0-13.52-10.96-24.48-24.48-24.48s-24.47,10.96-24.47,24.48c0,13.52,10.95,24.48,24.47,24.48S166.73,357.82,166.73,344.3z
		 M128.76,280.93c0-10.48-8.5-18.98-18.98-18.98c-10.49,0-18.98,8.5-18.98,18.98c0,10.48,8.49,18.98,18.98,18.98
		C120.26,299.91,128.76,291.41,128.76,280.93z"/>
	<path style="fill:#CEA43C;" d="M269.49,183.9l-24.01,21.6l-35.78-32.18l-35.77,32.18l-33.65-30.26l-0.97-0.87
		c0.24,4.19,0.56,8.48,0.97,12.87l33.65,30.26l35.77-32.18l35.78,32.18l24.85-22.35C270.11,191.34,269.84,187.58,269.49,183.9z"/>
	<path style="fill:#CCCCCC;" d="M282.44,17.51l-3.21,11.6h-0.01l-4.54,16.4L249.9,41.4l-22.7-3.77l-5.34,19.27l-7.5,27.1
		l-47.48-7.88l-12.85,46.38l-13.34-2.21v-0.01l-14.97-2.48c0.51-45.79,12.72-87.11,42.67-106.22
		C198.27-7.5,240.76-1.23,282.44,17.51z"/>
	<path style="fill:#CEA43C;" d="M284.3,29.32l-3.97,14.79h-0.01l-4.54,16.4L251,56.4l-22.7-3.77l-5.34,19.27l-7.5,27.1l-47.48-7.88
		l-12.85,46.38l-13.34-2.21v-0.01l-2.4-0.4c0.33-5.09,0.77-9.96,1.3-14.59l13.34,2.21l12.85-46.38L214.36,84l12.84-46.37l47.48,7.88
		l4.71-16.39C281.06,29.17,282.69,29.23,284.3,29.32z"/>
	<path style="fill:#CEA43C;" d="M357.68,106.62l-2.16,6.94c-0.26,0.85-0.56,1.68-0.88,2.5c-38.22-3.02-84.54,4.47-102.71,11.64
		c-19,7.5-38.15,3.18-38.15,3.18c10.53-0.56,22.18-2.84,34.53-7.95C285.74,107.46,335.68,106.28,357.68,106.62z"/>
	<polygon points="265.11,83.463 233.127,81.779 233.811,68.797 	"/>
	<path style="fill:#F2F2F2;" d="M172.78,17.95c6.063,0,10.98,4.917,10.98,10.98s-4.917,10.98-10.98,10.98
		c-6.068,0-10.98-4.917-10.98-10.98S166.711,17.95,172.78,17.95z"/>
	<path style="fill:#F2F2F2;" d="M250.64,35.7c0,1.97-0.26,3.88-0.74,5.7l-22.7-3.77l-5.34,19.27c-9.04-2.81-15.6-11.24-15.6-21.2
		c0-12.25,9.92-22.19,22.19-22.19C240.7,13.51,250.64,23.45,250.64,35.7z"/>
	<path style="fill:#F2F2F2;" d="M238.543,379.72c5.541,0,10.033,4.491,10.033,10.039c0,5.541-4.491,10.033-10.033,10.033
		s-10.039-4.491-10.039-10.033C228.503,384.211,233.001,379.72,238.543,379.72z"/>
	<path style="fill:#F2F2F2;" d="M320.543,235.72c5.541,0,10.033,4.491,10.033,10.039c0,5.541-4.491,10.033-10.033,10.033
		c-5.541,0-10.039-4.491-10.039-10.033C310.503,240.211,315.001,235.72,320.543,235.72z"/>
</g>
<g>
</g>
<g>
</g>
<g>
</g>
<g>
</g>
<g>
</g>
<g>
</g>
<g>
</g>
<g>
</g>
<g>
</g>
<g>
</g>
<g>
</g>
<g>
</g>
<g>
</g>
<g>
</g>
<g>
</g>
</svg>
