<?xml version="1.0" encoding="iso-8859-1"?>
<!-- Generator: Adobe Illustrator 19.0.0, SVG Export Plug-In . SVG Version: 6.00 Build 0)  -->
<svg version="1.1" id="Layer_1" xmlns="http://www.w3.org/2000/svg" xmlns:xlink="http://www.w3.org/1999/xlink" x="0px" y="0px"
	 viewBox="0 0 512 512" style="enable-background:new 0 0 512 512;" xml:space="preserve">
<path style="fill:#A5A5A5;" d="M503.916,110.484v37.726H8.084v-37.726c0-23.812,19.304-43.116,43.116-43.116h409.6
	C484.612,67.368,503.916,86.672,503.916,110.484z"/>
<path style="fill:#F2EFE2;" d="M503.916,132.042v301.81c0,23.812-19.304,43.116-43.116,43.116H51.2
	c-23.812,0-43.116-19.304-43.116-43.116v-301.81h64.674V56.589c0-11.906,9.651-21.558,21.558-21.558h86.232
	c11.906,0,21.558,9.651,21.558,21.558v75.453H503.916z"/>
<path style="fill:#B5C4C6;" d="M428.463,363.789H83.537c-11.906,0-21.558-9.651-21.558-21.558l0,0
	c0-11.906,9.651-21.558,21.558-21.558h344.926c11.906,0,21.558,9.651,21.558,21.558l0,0
	C450.021,354.138,440.37,363.789,428.463,363.789z M299.116,414.605L299.116,414.605c0-11.906-9.651-21.558-21.558-21.558H83.537
	c-11.906,0-21.558,9.651-21.558,21.558l0,0c0,11.906,9.651,21.558,21.558,21.558h194.021
	C289.464,436.163,299.116,426.511,299.116,414.605z"/>
<path style="fill:#DBD8D2;" d="M503.916,132.042v150.905H8.084V132.042h64.674V56.589c0-11.906,9.651-21.558,21.558-21.558h86.232
	c11.906,0,21.558,9.651,21.558,21.558v75.453H503.916z"/>
<path style="fill:#CCCAC4;" d="M180.547,72.758v21.558c0,5.953-4.826,10.779-10.779,10.779h-64.674
	c-5.953,0-10.779-4.826-10.779-10.779V72.758c0-5.953,4.826-10.779,10.779-10.779h64.674
	C175.722,61.979,180.547,66.805,180.547,72.758z"/>
<path style="fill:#FFFFFF;" d="M428.463,239.832H83.537c-11.906,0-21.558-9.651-21.558-21.558v-21.558
	c0-11.906,9.651-21.558,21.558-21.558h344.926c11.906,0,21.558,9.651,21.558,21.558v21.558
	C450.021,230.18,440.37,239.832,428.463,239.832z"/>
<path style="fill:#256277;" d="M199.411,207.495c0,4.465-3.62,8.084-8.084,8.084H94.316c-4.465,0-8.084-3.62-8.084-8.084
	c0-4.465,3.62-8.084,8.084-8.084h97.011C195.791,199.411,199.411,203.03,199.411,207.495z"/>
<path style="fill:#FC8059;" d="M278.487,210.92l134.621,52.678c12.504,4.893,13.94,22.013,2.426,28.921l-48.002,28.801
	l-28.801,48.002c-6.908,11.514-24.028,10.077-28.921-2.426l-52.678-134.622c-2.386-6.098-0.936-13.03,3.694-17.659l0,0
	C265.457,209.985,272.389,208.535,278.487,210.92z"/>
<path style="fill:#AD3C1E;" d="M415.536,292.52l-48.002,28.801L260.828,214.615c4.631-4.631,11.561-6.08,17.659-3.694
	l134.621,52.678C425.613,268.492,427.049,285.612,415.536,292.52z"/>
<path style="fill:#4C4C4C;" d="M199.411,207.495c0,4.466-3.618,8.084-8.084,8.084H94.316c-4.466,0-8.084-3.618-8.084-8.084
	c0-4.466,3.618-8.084,8.084-8.084h97.011C195.792,199.411,199.411,203.029,199.411,207.495z M385.347,91.082
	c-4.466,0-8.084,3.618-8.084,8.084v1.078c0,4.466,3.618,8.084,8.084,8.084s8.084-3.618,8.084-8.084v-1.078
	C393.432,94.701,389.813,91.082,385.347,91.082z M417.684,91.082c-4.466,0-8.084,3.618-8.084,8.084v1.078
	c0,4.466,3.618,8.084,8.084,8.084c4.466,0,8.084-3.618,8.084-8.084v-1.078C425.768,94.701,422.15,91.082,417.684,91.082z
	 M512,110.484v323.368c0,28.231-22.969,51.2-51.2,51.2H51.2c-28.231,0-51.2-22.969-51.2-51.2V110.484
	c0-28.231,22.969-51.2,51.2-51.2h13.474v-2.695c0-16.344,13.298-29.642,29.642-29.642h86.232c16.344,0,29.642,13.298,29.642,29.642
	v2.695H460.8C489.031,59.284,512,82.253,512,110.484z M16.168,123.958h48.505V75.453H51.2c-19.317,0-35.032,15.715-35.032,35.032
	V123.958z M495.832,291.032h-67.883c-2.01,3.387-4.866,6.293-8.412,8.421l-46.269,27.762l-27.761,46.269
	c-4.794,7.99-13.545,12.477-22.826,11.69c-9.285-0.779-17.162-6.653-20.557-15.331l-30.838-78.81H16.168v142.821
	c0,19.317,15.715,35.032,35.032,35.032h409.6c19.317,0,35.032-15.715,35.032-35.032V291.032z M254.953,208.899L254.953,208.899
	c4.694-4.694,10.978-7.196,17.376-7.196c3.007,0,6.041,0.552,8.948,1.689l72.824,28.496c0.49-0.093,0.996-0.141,1.513-0.141h72.849
	c7.43,0,13.474-6.044,13.474-13.474v-21.558c0-7.43-6.044-13.474-13.474-13.474H83.537c-7.43,0-13.474,6.044-13.474,13.474v21.558
	c0,7.43,6.044,13.474,13.474,13.474h164.84C246.509,223.592,248.919,214.934,254.953,208.899z M264.506,229.329l52.678,134.621
	c1.148,2.937,3.71,4.847,6.852,5.11c3.133,0.271,5.987-1.192,7.608-3.896l28.801-48.002c0.683-1.138,1.636-2.09,2.773-2.773
	l48.002-28.801c2.703-1.622,4.16-4.467,3.896-7.608c-0.263-3.142-2.174-5.704-5.109-6.852L275.384,218.45
	c-3.107-1.216-6.64-0.478-8.997,1.881C264.028,222.691,263.29,226.222,264.506,229.329z M495.832,140.126H202.105
	c-4.466,0-8.084-3.618-8.084-8.084V56.589c0-7.43-6.044-13.474-13.474-13.474H94.316c-7.43,0-13.474,6.044-13.474,13.474v75.453
	c0,4.466-3.618,8.084-8.084,8.084H16.168v134.737h248.792l-10.545-26.947H83.537c-16.344,0-29.642-13.298-29.642-29.642v-21.558
	c0-16.344,13.298-29.642,29.642-29.642h344.926c16.344,0,29.642,13.298,29.642,29.642v21.558c0,16.344-13.298,29.642-29.642,29.642
	h-33.405l20.84,8.154c8.121,3.178,13.787,10.282,15.117,18.793h64.816V140.126z M495.832,110.484
	c0-19.317-15.715-35.032-35.032-35.032H210.189v48.505h285.642V110.484z M450.021,91.082c-4.466,0-8.084,3.618-8.084,8.084v1.078
	c0,4.466,3.618,8.084,8.084,8.084s8.084-3.618,8.084-8.084v-1.078C458.105,94.701,454.487,91.082,450.021,91.082z"/>
<g>
</g>
<g>
</g>
<g>
</g>
<g>
</g>
<g>
</g>
<g>
</g>
<g>
</g>
<g>
</g>
<g>
</g>
<g>
</g>
<g>
</g>
<g>
</g>
<g>
</g>
<g>
</g>
<g>
</g>
</svg>
